<svg xmlns="http://www.w3.org/2000/svg" viewBox="0 0 44.07 35.75"><defs><style>.cls-1{fill:#333;}.cls-2{fill:none;stroke:#02c23e;stroke-miterlimit:10;stroke-width:5px;}</style></defs><title>Ресурс 10</title><g id="Слой_2" data-name="Слой 2"><g id="Layer_1" data-name="Layer 1"><path class="cls-1" d="M27.87,4a3.88,3.88,0,0,1,3.88,3.88v20a3.88,3.88,0,0,1-3.88,3.88h-20A3.88,3.88,0,0,1,4,27.87v-20A3.88,3.88,0,0,1,7.88,4h20m0-4h-20A7.88,7.88,0,0,0,0,7.88v20a7.88,7.88,0,0,0,7.88,7.88h20a7.88,7.88,0,0,0,7.88-7.88v-20A7.88,7.88,0,0,0,27.87,0Z"/><polyline class="cls-2" points="10.54 14.36 17.25 22.67 42.68 5.6"/></g></g></svg>